Coordinates
version=1
nRows=8
nColumns=63
inDegrees=yes

Units are S.I. units (second, meters, Newtons, ...)
If the header above contains a line with 'inDegrees', this indicates whether rotational values are in degrees (yes) or radians (no).

endheader
time	pelvis_tilt	pelvis_list	pelvis_rotation	pelvis_tx	pelvis_ty	pelvis_tz	hip_flexion_r	hip_adduction_r	hip_rotation_r	knee_angle_r	knee_angle_r_beta	ankle_angle_r	subtalar_angle_r	mtp_angle_r	hip_flexion_l	hip_adduction_l	hip_rotation_l	knee_angle_l	knee_angle_l_beta	ankle_angle_l	subtalar_angle_l	mtp_angle_l	L5_S1_Flex_Ext	L5_S1_Lat_Bending	L5_S1_axial_rotation	L4_L5_Flex_Ext	L4_L5_Lat_Bending	L4_L5_axial_rotation	L3_L4_Flex_Ext	L3_L4_Lat_Bending	L3_L4_axial_rotation	L2_L3_Flex_Ext	L2_L3_Lat_Bending	L2_L3_axial_rotation	L1_L2_Flex_Ext	L1_L2_Lat_Bending	L1_L2_axial_rotation	L1_T12_Flex_Ext	L1_T12_Lat_Bending	L1_T12_axial_rotation	Abs_r3	Abs_r2	Abs_r1	Abs_t1	Abs_t2	neck_flexion	neck_bending	neck_rotation	arm_flex_r	arm_add_r	arm_rot_r	elbow_flex_r	pro_sup_r	wrist_flex_r	wrist_dev_r	arm_flex_l	arm_add_l	arm_rot_l	elbow_flex_l	pro_sup_l	wrist_flex_l	wrist_dev_l
8.551724	-2.892053	1.033583	77.365675	0.210999	0.912504	0.537701	5.782601	3.848123	10.706620	13.443249	0.234629	37.922749	-15.053780	0.000000	5.719793	-2.131547	5.188233	9.598949	0.167533	41.462095	16.647914	0.000000	0.068727	-0.505975	-1.397461	0.127633	-0.672946	-1.484802	0.112912	-1.230227	-1.484802	0.078548	-1.230227	-1.222778	0.063820	-1.031784	-1.135437	0.039271	-0.783755	-1.048096	0.490912	-5.723687	-7.772259	0.000000	0.000000	27.176189	17.847004	-19.467821	31.989949	-48.428545	-24.341870	114.058908	88.553132	-15.930393	3.602911	14.269233	-13.924852	156.346827	2.115486	17.980898	-6.594814	-8.958238
8.568966	-2.722596	0.827705	77.462012	0.210340	0.913760	0.536543	5.377752	4.008157	11.204030	12.444992	0.217206	37.108570	-15.646332	0.000000	5.894197	-2.368689	4.923062	9.879271	0.172426	41.349083	17.160830	0.000000	0.085942	-0.461453	-1.384193	0.159603	-0.613732	-1.470705	0.141195	-1.121976	-1.470705	0.098223	-1.121976	-1.211169	0.079806	-0.940994	-1.124657	0.049107	-0.714790	-1.038145	0.613877	-5.220045	-7.698468	0.000000	0.000000	27.211353	17.023025	-20.061851	37.116236	-49.250354	-23.288425	109.467923	88.810090	-18.253078	1.394810	14.432185	-14.350103	150.254070	3.036222	15.374891	-6.247430	-10.175706
8.586207	-2.580791	0.501562	77.532777	0.209602	0.915209	0.535503	5.093066	4.139425	11.321596	11.472902	0.200240	36.170912	-15.973429	0.000000	6.098055	-2.594833	4.837684	9.988239	0.174328	40.965661	17.230950	0.000000	0.115488	-0.408901	-1.378420	0.214473	-0.543839	-1.464571	0.189735	-0.994203	-1.464571	0.131991	-0.994203	-1.206117	0.107242	-0.833832	-1.119966	0.065990	-0.633388	-1.033815	0.824918	-4.625575	-7.666358	0.000000	0.000000	27.283793	15.983394	-20.740112	43.311206	-49.420442	-22.215414	104.939660	88.530981	-20.076546	-0.694529	14.440435	-14.766650	143.622791	4.016752	12.732474	-6.113023	-11.346730
8.603448	-2.468533	0.091149	77.589007	0.208826	0.916882	0.534586	4.908486	4.242790	11.111807	10.558770	0.184285	35.086425	-16.163747	0.000000	6.289479	-2.798134	4.888777	9.910506	0.172971	40.318995	16.928607	0.000000	0.151902	-0.349023	-1.390862	0.282097	-0.464201	-1.477791	0.249559	-0.848616	-1.477791	0.173608	-0.848616	-1.217004	0.141056	-0.711729	-1.130075	0.086797	-0.540637	-1.043147	1.085018	-3.948224	-7.735558	0.000000	0.000000	27.389115	14.755827	-21.356060	50.473983	-48.909048	-20.828547	100.642018	87.749529	-21.077630	-2.571790	14.280257	-15.162082	136.810786	5.043884	10.031341	-6.231853	-12.399556
8.620690	-2.378242	-0.398529	77.639172	0.208083	0.918778	0.533790	4.835716	4.334150	10.550817	9.729178	0.169806	33.873418	-16.187153	0.000000	6.497329	-3.001351	4.616782	9.713693	0.169536	39.523351	16.833616	0.000000	0.194772	-0.283081	-1.418869	0.361711	-0.376498	-1.507549	0.319991	-0.688283	-1.507549	0.222605	-0.688283	-1.241511	0.180865	-0.577259	-1.152831	0.111293	-0.438492	-1.064152	1.391238	-3.202268	-7.891325	0.000000	0.000000	27.523689	13.377728	-21.938741	58.276299	-47.791744	-18.937436	96.795443	86.428988	-21.479668	-4.135457	13.982406	-15.506072	130.197909	6.045758	7.557631	-6.470860	-13.230131
8.637931	-2.297413	-0.929580	77.699865	0.207411	0.920912	0.533071	4.850834	4.420317	9.611306	9.012146	0.157292	32.570639	-15.994561	0.000000	6.668136	-3.198852	4.329645	9.376905	0.163658	38.516057	16.571693	0.000000	0.240018	-0.212743	-1.462554	0.445737	-0.282948	-1.553963	0.394325	-0.517263	-1.553963	0.274316	-0.517263	-1.279734	0.222880	-0.433825	-1.188325	0.137146	-0.329538	-1.096915	1.714422	-2.406588	-8.134285	0.000000	0.000000	27.678797	11.895239	-22.461616	66.353644	-46.167065	-16.372465	93.563946	84.934077	-21.677364	-5.348772	13.578853	-15.778577	123.999785	6.991130	5.733265	-6.815997	-13.802101
8.655172	-2.225877	-1.461865	77.800419	0.206859	0.923291	0.532412	4.928823	4.496092	8.311579	8.428479	0.147105	31.212190	-15.596636	0.000000	6.778074	-3.382481	4.056483	8.926469	0.155796	37.303454	16.157629	0.000000	0.283887	-0.142910	-1.523096	0.527207	-0.190070	-1.618290	0.466398	-0.347471	-1.618290	0.324454	-0.347471	-1.332709	0.263617	-0.291422	-1.237516	0.162213	-0.221367	-1.142322	2.027777	-1.616624	-8.471004	0.000000	0.000000	27.845252	10.429879	-22.883154	74.288853	-44.130605	-13.174858	91.045946	83.353867	-21.580209	-6.208913	13.121514	-15.996555	118.506981	7.863830	4.676601	-7.219478	-14.210391
8.672414	-2.163320	-1.973414	77.919661	0.206452	0.925861	0.531808	5.086848	4.557467	6.697939	8.038015	0.140290	29.868375	-14.963152	0.000000	6.809647	-3.545933	3.822241	8.371044	0.146102	35.900162	15.559289	0.000000	0.324710	-0.076758	-1.590311	0.603019	-0.102089	-1.689706	0.533467	-0.186630	-1.689706	0.371111	-0.186630	-1.391522	0.301526	-0.156526	-1.292128	0.185539	-0.118899	-1.192733	2.319373	-0.868306	-8.844834	0.000000	0.000000	28.006435	8.959471	-23.294706	81.691392	-41.815026	-9.502282	89.288532	81.840279	-21.068641	-6.536147	12.650713	-16.159879	113.859078	8.653258	4.316973	-7.708406	-14.416044
